<?xml version="1.0" encoding="utf-8"?>
<!-- Generator: Adobe Illustrator 14.0.0, SVG Export Plug-In . SVG Version: 6.00 Build 43363)  -->
<!DOCTYPE svg PUBLIC "-//W3C//DTD SVG 1.1//EN" "http://www.w3.org/Graphics/SVG/1.1/DTD/svg11.dtd">
<svg version="1.1" id="Capa_1" xmlns="http://www.w3.org/2000/svg" xmlns:xlink="http://www.w3.org/1999/xlink" x="0px" y="0px"
	 width="45.571px" height="8.7px" viewBox="0 0.363 45.571 8.7" enable-background="new 0 0.363 45.571 8.7" xml:space="preserve">
<g>
	<path d="M0.193,0.494h2.556l1.572,2.388l1.584-2.388h2.592L5.725,4.515l3.012,4.391H6.108L4.32,6.302L2.568,8.906H0l2.988-4.284
		L0.193,0.494z"/>
	<g>
		<path d="M9.499,0.494h6.289l-0.013,1.752h-4.08v1.872h3.768v1.752h-3.768v3.035H9.499V0.494z"/>
		<path d="M23.114,0.926c0.691,0.376,1.235,0.893,1.631,1.549c0.396,0.655,0.594,1.392,0.594,2.208c0,0.823-0.197,1.567-0.594,2.231
			c-0.396,0.666-0.939,1.189-1.631,1.572c-0.693,0.385-1.467,0.576-2.322,0.576c-0.856,0-1.631-0.189-2.322-0.57
			c-0.692-0.379-1.236-0.904-1.633-1.572c-0.396-0.668-0.594-1.414-0.594-2.237c0-0.816,0.198-1.553,0.594-2.208
			c0.396-0.656,0.94-1.173,1.633-1.549c0.691-0.376,1.466-0.563,2.322-0.563C21.647,0.363,22.42,0.55,23.114,0.926z M19.657,2.546
			c-0.355,0.216-0.638,0.515-0.846,0.895s-0.312,0.798-0.312,1.254c0,0.463,0.105,0.885,0.318,1.266
			c0.213,0.379,0.494,0.68,0.846,0.9c0.353,0.219,0.736,0.33,1.152,0.33s0.799-0.111,1.146-0.33c0.348-0.221,0.621-0.521,0.822-0.9
			c0.199-0.381,0.299-0.803,0.299-1.266c0-0.456-0.1-0.874-0.299-1.254c-0.201-0.38-0.475-0.679-0.822-0.895
			s-0.73-0.323-1.146-0.323S20.013,2.33,19.657,2.546z"/>
		<path d="M26.431,0.494h2.196v6.541h3.563v1.871h-5.76V0.494z"/>
		<path d="M33.187,0.494h2.196v8.412h-2.196V0.494z"/>
		<path d="M43.344,0.926c0.691,0.376,1.236,0.893,1.632,1.549c0.396,0.655,0.595,1.392,0.595,2.208c0,0.823-0.199,1.567-0.595,2.231
			c-0.396,0.666-0.94,1.189-1.632,1.572c-0.692,0.385-1.467,0.576-2.322,0.576s-1.63-0.189-2.322-0.57
			c-0.691-0.379-1.236-0.904-1.632-1.572s-0.594-1.414-0.594-2.237c0-0.816,0.198-1.553,0.594-2.208
			c0.396-0.656,0.94-1.173,1.632-1.549c0.692-0.376,1.467-0.563,2.322-0.563C41.879,0.363,42.652,0.55,43.344,0.926z M39.888,2.546
			c-0.356,0.216-0.638,0.515-0.847,0.895c-0.207,0.38-0.312,0.798-0.312,1.254c0,0.463,0.104,0.885,0.317,1.266
			c0.213,0.379,0.494,0.68,0.847,0.9c0.353,0.219,0.735,0.33,1.151,0.33s0.799-0.111,1.146-0.33c0.348-0.221,0.622-0.521,0.822-0.9
			c0.199-0.381,0.3-0.803,0.3-1.266c0-0.456-0.101-0.874-0.3-1.254c-0.2-0.38-0.475-0.679-0.822-0.895s-0.73-0.323-1.146-0.323
			S40.245,2.33,39.888,2.546z"/>
	</g>
</g>
</svg>
